<?xml version="1.0" encoding="UTF-8" standalone="no"?>
<!DOCTYPE svg PUBLIC "-//W3C//DTD SVG 1.1//EN" "http://www.w3.org/Graphics/SVG/1.1/DTD/svg11.dtd">
<!-- <svg width="100%" height="100%" viewBox="0 0 889 223" version="1.1" xmlns="http://www.w3.org/2000/svg" xmlns:xlink="http://www.w3.org/1999/xlink" xml:space="preserve" xmlns:serif="http://www.serif.com/" style="fill-rule:evenodd;clip-rule:evenodd;stroke-linejoin:round;stroke-miterlimit:2;">
    <g transform="matrix(2.51575,0,0,2.82224,-5.5855,15.0761)">
        <g>
            <g transform="matrix(1,0,0,1,0,70.707)">
                <path d="M44.223,-51.156L26.507,-51.156L26.507,-56.593C26.507,-59.13 26.28,-60.746 25.827,-61.441C25.374,-62.136 24.619,-62.483 23.561,-62.483C22.414,-62.483 21.545,-62.015 20.956,-61.079C20.367,-60.142 20.073,-58.722 20.073,-56.819C20.073,-54.373 20.405,-52.53 21.069,-51.292C21.704,-50.053 23.501,-48.558 26.461,-46.806C34.95,-41.761 40.296,-37.623 42.501,-34.391C44.706,-31.159 45.809,-25.948 45.809,-18.759C45.809,-13.533 45.197,-9.681 43.974,-7.204C42.751,-4.727 40.387,-2.651 36.883,-0.974C33.379,0.702 29.301,1.541 24.649,1.541C19.544,1.541 15.187,0.574 11.577,-1.359C7.967,-3.293 5.603,-5.754 4.486,-8.745C3.368,-11.735 2.809,-15.98 2.809,-21.477L2.809,-26.28L20.526,-26.28L20.526,-17.354C20.526,-14.605 20.775,-12.838 21.273,-12.053C21.772,-11.267 22.655,-10.875 23.924,-10.875C25.193,-10.875 26.137,-11.373 26.756,-12.37C27.375,-13.367 27.685,-14.847 27.685,-16.81C27.685,-21.13 27.096,-23.954 25.918,-25.283C24.709,-26.612 21.734,-28.833 16.991,-31.944C12.249,-35.085 9.107,-37.366 7.567,-38.786C6.026,-40.206 4.75,-42.169 3.738,-44.676C2.726,-47.183 2.22,-50.385 2.22,-54.282C2.22,-59.901 2.938,-64.009 4.372,-66.607C5.807,-69.204 8.126,-71.236 11.328,-72.701C14.53,-74.166 18.396,-74.898 22.927,-74.898C27.881,-74.898 32.103,-74.098 35.591,-72.497C39.08,-70.896 41.391,-68.88 42.524,-66.448C43.657,-64.016 44.223,-59.885 44.223,-54.055L44.223,-51.156Z" style="fill:rgb(177,39,50);fill-rule:nonzero;"/>
            </g>
            <g transform="matrix(1,0,0,1,47.984,70.707)">
                <rect x="3.806" y="-73.358" width="19.076" height="73.358"/>
                <path d="M68.963,-73.358L68.963,-58.677L57.635,-58.677L57.635,0L38.559,0L38.559,-58.677L27.277,-58.677L27.277,-73.358L68.963,-73.358Z" style="fill-rule:nonzero;"/>
                <path d="M73.312,-73.358L105.12,-73.358L105.12,-58.677L92.388,-58.677L92.388,-44.767L104.305,-44.767L104.305,-30.811L92.388,-30.811L92.388,-14.681L106.389,-14.681L106.389,0L73.312,0L73.312,-73.358Z" style="fill-rule:nonzero;"/>
            </g>
            <g transform="matrix(1,0,0,1,172.406,70.707)">
                <path d="M22.882,-73.358L22.882,-14.681L34.481,-14.681L34.481,0L3.806,0L3.806,-73.358L22.882,-73.358Z" style="fill:rgb(213,87,27);fill-rule:nonzero;"/>
            </g>
            <g transform="matrix(1,0,0,1,206.298,70.707)">
                <path d="M47.395,-30.403C47.395,-23.033 47.221,-17.815 46.874,-14.749C46.526,-11.683 45.439,-8.881 43.611,-6.343C41.784,-3.806 39.314,-1.858 36.203,-0.498C33.092,0.861 29.467,1.541 25.329,1.541C21.402,1.541 17.875,0.899 14.749,-0.385C11.622,-1.669 9.107,-3.595 7.204,-6.162C5.301,-8.73 4.169,-11.524 3.806,-14.545C3.444,-17.565 3.262,-22.852 3.262,-30.403L3.262,-42.954C3.262,-50.325 3.436,-55.543 3.783,-58.609C4.131,-61.675 5.218,-64.477 7.046,-67.014C8.873,-69.552 11.343,-71.5 14.454,-72.859C17.565,-74.219 21.19,-74.898 25.329,-74.898C29.256,-74.898 32.782,-74.256 35.909,-72.973C39.035,-71.689 41.55,-69.763 43.453,-67.196C45.356,-64.628 46.489,-61.834 46.851,-58.813C47.214,-55.792 47.395,-50.506 47.395,-42.954L47.395,-30.403ZM28.319,-54.509C28.319,-57.922 28.13,-60.104 27.753,-61.056C27.375,-62.007 26.597,-62.483 25.419,-62.483C24.422,-62.483 23.66,-62.098 23.131,-61.328C22.602,-60.558 22.338,-58.284 22.338,-54.509L22.338,-20.254C22.338,-15.995 22.512,-13.367 22.859,-12.37C23.207,-11.373 24.015,-10.875 25.283,-10.875C26.582,-10.875 27.413,-11.448 27.775,-12.596C28.138,-13.744 28.319,-16.478 28.319,-20.798L28.319,-54.509Z" style="fill-rule:nonzero;"/>
                <path d="M98.279,-46.353L79.203,-46.353L79.203,-53.013C79.203,-57.212 79.022,-59.84 78.659,-60.897C78.297,-61.955 77.436,-62.483 76.076,-62.483C74.898,-62.483 74.098,-62.03 73.675,-61.124C73.252,-60.218 73.041,-57.892 73.041,-54.146L73.041,-18.94C73.041,-15.647 73.252,-13.48 73.675,-12.438C74.098,-11.396 74.944,-10.875 76.212,-10.875C77.602,-10.875 78.546,-11.464 79.044,-12.642C79.543,-13.82 79.792,-16.115 79.792,-19.529L79.792,-28.228L75.94,-28.228L75.94,-39.375L98.279,-39.375L98.279,0L86.271,0L84.504,-5.256C83.205,-2.99 81.567,-1.291 79.588,-0.159C77.609,0.974 75.276,1.541 72.587,1.541C69.386,1.541 66.388,0.763 63.593,-0.793C60.799,-2.349 58.677,-4.274 57.227,-6.57C55.777,-8.866 54.871,-11.275 54.509,-13.797C54.146,-16.319 53.965,-20.103 53.965,-25.147L53.965,-46.942C53.965,-53.95 54.342,-59.04 55.098,-62.211C55.853,-65.383 58.02,-68.291 61.6,-70.934C65.179,-73.577 69.808,-74.898 75.487,-74.898C81.076,-74.898 85.712,-73.75 89.398,-71.455C93.083,-69.159 95.484,-66.433 96.602,-63.276C97.72,-60.12 98.279,-55.536 98.279,-49.524L98.279,-46.353Z" style="fill-rule:nonzero;"/>
                <path d="M149.253,-30.403C149.253,-23.033 149.079,-17.815 148.732,-14.749C148.384,-11.683 147.297,-8.881 145.47,-6.343C143.642,-3.806 141.173,-1.858 138.061,-0.498C134.95,0.861 131.325,1.541 127.187,1.541C123.26,1.541 119.733,0.899 116.607,-0.385C113.48,-1.669 110.966,-3.595 109.062,-6.162C107.159,-8.73 106.027,-11.524 105.664,-14.545C105.302,-17.565 105.12,-22.852 105.12,-30.403L105.12,-42.954C105.12,-50.325 105.294,-55.543 105.642,-58.609C105.989,-61.675 107.076,-64.477 108.904,-67.014C110.731,-69.552 113.201,-71.5 116.312,-72.859C119.423,-74.219 123.048,-74.898 127.187,-74.898C131.114,-74.898 134.64,-74.256 137.767,-72.973C140.893,-71.689 143.408,-69.763 145.311,-67.196C147.214,-64.628 148.347,-61.834 148.709,-58.813C149.072,-55.792 149.253,-50.506 149.253,-42.954L149.253,-30.403ZM130.177,-54.509C130.177,-57.922 129.988,-60.104 129.611,-61.056C129.233,-62.007 128.455,-62.483 127.277,-62.483C126.28,-62.483 125.518,-62.098 124.989,-61.328C124.461,-60.558 124.196,-58.284 124.196,-54.509L124.196,-20.254C124.196,-15.995 124.37,-13.367 124.717,-12.37C125.065,-11.373 125.873,-10.875 127.141,-10.875C128.44,-10.875 129.271,-11.448 129.633,-12.596C129.996,-13.744 130.177,-16.478 130.177,-20.798L130.177,-54.509Z" style="fill-rule:nonzero;"/>
            </g>
        </g>
    </g>
</svg> -->

<svg width="78" height="41" viewBox="0 0 78 41" fill="none" xmlns="http://www.w3.org/2000/svg">
<path d="M51.6673 41H24.4693C22.8309 41 21.5201 39.6561 21.6294 38.0435L23.4863 12.1871C23.5955 10.7357 24.797 9.60684 26.3262 9.60684H49.8104C51.285 9.60684 52.5411 10.7357 52.6503 12.1871L54.5072 38.0435C54.6164 39.6024 53.3057 41 51.6673 41Z" fill="#A9CF42"/>
<path d="M0.438995 34.5493V18.7453C0.438995 16.2188 1.74975 14.7673 4.15278 14.7673H10.2696C16.8779 14.7673 20.5371 17.6164 20.5371 23.0994C20.5371 28.5287 17.0418 31.2703 10.4881 31.2703H7.70272V34.5493C7.70272 36.6458 6.61042 37.8284 4.53507 37.8284H3.4974C1.5859 37.8284 0.438995 36.6996 0.438995 34.5493ZM13.4918 23.0994C13.4918 21.1642 12.2903 20.0891 10.0511 20.0891H7.59348V26.056H10.1604C12.3449 26.0022 13.4918 24.9809 13.4918 23.0994Z" fill="#5D2C83"/>
<path d="M56.1457 17.8314C56.1457 15.6274 57.3472 14.5523 59.3133 14.5523H60.1871C62.2625 14.5523 63.3002 15.6274 63.3002 17.8314V27.6687C63.3002 30.4639 64.447 31.8616 66.7409 31.8616C69.0347 31.8616 70.0723 30.5177 70.0723 27.6687V17.8314C70.0723 15.5737 71.2738 14.5523 73.2399 14.5523H74.1684C76.2437 14.5523 77.2814 15.6274 77.2814 17.8314V27.5611C77.2814 34.4418 73.6769 37.9897 66.6862 37.9897C59.641 37.9897 56.091 34.4956 56.091 27.5611V17.8314H56.1457Z" fill="#5D2C83"/>
<path d="M28.6746 34.2268V32.8829C28.6746 28.905 32.7161 26.6473 35.7745 25.2497C38.4506 24.0133 40.526 23.422 40.526 21.9706C40.526 20.5192 39.5429 19.8204 37.5768 19.8204C35.1737 19.8204 33.7538 21.5943 33.4261 23.3682C33.4261 23.422 28.7839 23.637 28.7839 20.1967C28.7839 18.4765 29.6031 17.0251 31.1869 15.95C32.7161 14.8749 35.0645 14.2298 38.0683 14.2298C44.1851 14.2298 47.5166 16.9713 47.5166 21.5943C47.5166 26.0022 44.4582 27.3999 41.1813 28.6363C38.9421 29.4963 36.8122 30.1414 35.6653 31.324C35.4468 31.539 35.2284 31.7541 35.0645 31.9153H44.2943C46.752 31.9153 47.6804 32.8829 47.6804 34.5494V34.8181C47.6804 36.5921 46.8066 37.5596 44.2943 37.5596H32.9892C29.6577 37.6134 28.6746 37.1296 28.6746 34.2268Z" fill="white"/>
<path d="M28.4016 11.542C28.4016 6.32776 32.7161 2.08109 38.0137 2.08109C43.3113 2.08109 47.6258 6.32776 47.6258 11.542" stroke="#A9CF42" stroke-width="2.8346" stroke-miterlimit="10"/>
</svg>
